<?xml version="1.0" standalone="no"?>
<!DOCTYPE svg PUBLIC "-//W3C//DTD SVG 20010904//EN"
 "http://www.w3.org/TR/2001/REC-SVG-20010904/DTD/svg10.dtd">
<svg version="1.0" xmlns="http://www.w3.org/2000/svg"
 width="512.000000pt" height="512.000000pt" viewBox="0 0 512.000000 512.000000"
 preserveAspectRatio="xMidYMid meet">
<metadata>
Created by potrace 1.14, written by Peter Selinger 2001-2017
</metadata>
<g transform="translate(0.000000,512.000000) scale(0.100000,-0.100000)"
fill="#000000" stroke="none">
<path d="M1825 4614 c-92 -14 -239 -50 -328 -80 -419 -145 -766 -492 -911
-911 -66 -192 -81 -284 -81 -503 0 -219 15 -311 81 -503 145 -419 492 -766
911 -911 192 -66 284 -81 503 -81 167 0 210 3 298 23 132 30 286 83 382 132
l75 39 55 -15 c178 -47 378 32 467 183 60 103 76 215 47 329 l-15 62 35 69
c46 93 100 248 128 375 20 88 23 131 23 298 0 219 -15 311 -81 503 -144 414
-488 762 -899 907 -179 63 -282 81 -480 85 -99 2 -193 1 -210 -1z m436 -234
c436 -89 801 -406 953 -828 95 -264 95 -600 0 -864 -129 -359 -423 -653 -782
-782 -264 -95 -600 -95 -864 0 -359 129 -653 423 -782 782 -95 264 -95 600 0
864 148 410 507 730 925 823 179 39 372 41 550 5z"/>
<path d="M2771 3874 c-57 -7 -105 -14 -107 -16 -2 -2 21 -23 51 -47 52 -40 54
-44 40 -63 -61 -89 -763 -957 -772 -958 -7 0 -51 76 -98 170 -70 139 -85 178
-85 216 0 37 -5 51 -29 75 -66 66 -171 20 -171 -75 0 -44 -7 -55 -213 -320
-168 -219 -217 -275 -235 -276 -13 0 -37 -13 -53 -29 -64 -65 -20 -171 71
-171 33 0 48 6 72 30 26 27 30 36 26 77 l-3 46 210 270 c115 149 215 272 222
275 7 2 44 -61 92 -156 78 -155 80 -161 74 -215 -5 -52 -4 -58 25 -86 24 -25
39 -31 72 -31 53 0 100 42 100 90 0 27 61 109 392 524 215 270 393 493 395
495 1 2 30 -17 63 -43 33 -26 60 -41 60 -34 0 7 -7 69 -15 138 -8 69 -15 126
-15 128 0 5 -68 -1 -169 -14z"/>
<path d="M3367 1927 c-34 -65 -95 -127 -163 -164 l-51 -28 617 -622 c526 -531
622 -623 646 -623 42 0 224 183 224 225 0 26 -82 112 -617 647 -340 340 -620
618 -623 618 -3 0 -18 -24 -33 -53z"/>
</g>
</svg>
